<svg xmlns="http://www.w3.org/2000/svg" width="18" height="22" viewBox="0 0 18 22">
    <defs>
        <linearGradient id="b" x1="0%" y1="62.361%" y2="62.361%">
            <stop offset="0%" stop-color="#FFF"/>
            <stop offset="47.809%" stop-color="#EAEAEA"/>
            <stop offset="49.249%" stop-color="#FFF"/>
            <stop offset="71.569%" stop-color="#FFF"/>
            <stop offset="72.836%" stop-color="#F2F2F2"/>
            <stop offset="100%" stop-color="#F2F2F2"/>
        </linearGradient>
        <linearGradient id="a" x1="50%" x2="50%" y1="0%" y2="100%">
            <stop offset="0%" stop-color="#DDD"/>
            <stop offset="100%" stop-color="#767676"/>
        </linearGradient>
        <linearGradient id="d" x1="50%" x2="50%" y1="0%" y2="100%">
            <stop offset="0%" stop-color="#FFF"/>
            <stop offset="69.009%" stop-color="#F2F2F2"/>
            <stop offset="71.381%" stop-color="#DCDCDC"/>
            <stop offset="100%" stop-color="#DDD"/>
        </linearGradient>
        <linearGradient id="c" x1="50%" x2="50%" y1="0%" y2="100%">
            <stop offset="0%" stop-color="#F2F2F2"/>
            <stop offset="100%" stop-color="#767676"/>
        </linearGradient>
    </defs>
    <g fill="none" fill-rule="evenodd">
        <path fill="url(#b)" fill-rule="nonzero" stroke="url(#a)" d="M17.5 10.817a.615.615 0 0 0-.608-.6H1.12c-.348.008-.62.278-.62.6v10.04c0 .34.294.642.633.643h15.73c.355 0 .637-.272.637-.6V10.817z"/>
        <path fill="url(#d)" fill-rule="nonzero" stroke="url(#c)" d="M14.08 9.217h.688v-3.49C14.768 2.838 12.352.5 9.384.5h-.768C5.622.5 3.232 2.812 3.232 5.678v3.538h.587V5.894C3.819 3.165 6.152.91 8.974.91c2.832 0 5.105 2.213 5.105 4.983v3.324z"/>
        <path fill="#4C4C4C" d="M4.7 13.2c.307 0 .614.05.87.098.256.05.512.148.717.247l-.205.787c-.256-.098-.46-.197-.665-.246a2.663 2.663 0 0 0-.614-.098c-.308 0-.512.049-.717.147a.513.513 0 0 0-.256.443c0 .197.051.345.205.443.153.099.358.197.665.296l.512.148c.46.147.82.344 1.024.59.256.246.358.542.358.886 0 .247-.051.443-.153.591-.103.148-.205.345-.41.492-.153.148-.41.247-.665.345-.205.098-.461.148-.82.148-.307 0-.614-.05-.92-.099-.308-.049-.564-.147-.871-.295l.256-.739c.256.099.512.197.717.247a4.1 4.1 0 0 0 .767.098c.308 0 .563-.05.717-.148a.599.599 0 0 0 .256-.492c0-.218-.154-.345-.205-.394-.05-.049-.153-.098-.307-.197a18.477 18.477 0 0 0-.972-.344c-.41-.148-.717-.296-.973-.493-.256-.196-.358-.492-.358-.886 0-.443.153-.787.512-1.083.409-.344.92-.492 1.535-.492zm4.454 0c.307 0 .614.05.87.098.256.05.512.148.716.247l-.256.787c-.255-.098-.46-.197-.665-.246a2.663 2.663 0 0 0-.614-.098c-.307 0-.512.049-.717.147a.513.513 0 0 0-.256.443c0 .197.051.345.205.443.153.099.358.197.665.296l.512.148c.461.147.82.344 1.024.59.256.246.358.542.358.886 0 .247-.05.443-.153.591-.103.148-.205.345-.41.492-.153.148-.41.247-.665.345-.256.098-.563.098-.87.098-.308 0-.615-.049-.922-.098-.307-.05-.563-.148-.87-.295l.256-.739c.256.099.512.197.717.246a4.1 4.1 0 0 0 .767.099c.308 0 .564-.05.717-.148a.599.599 0 0 0 .256-.492c0-.222-.154-.345-.205-.394-.05-.05-.153-.098-.307-.197a18.477 18.477 0 0 0-.972-.345c-.41-.147-.717-.295-.973-.492s-.358-.492-.358-.886c0-.443.153-.788.512-1.083a3.136 3.136 0 0 1 1.638-.443zm3.941 0v4.48h2.252v.837H12.02V13.2h1.075z"/>
    </g>
</svg>
